<svg id="Layer_1" data-name="Layer 1" xmlns="http://www.w3.org/2000/svg" xmlns:xlink="http://www.w3.org/1999/xlink" viewBox="0 0 1080 1080"><defs><style>.cls-1{fill:#9ffff8;}.cls-2{fill:#01d5e7;}.cls-3{fill:#67ffff;}.cls-4{fill:#002dee;}.cls-5{fill:url(#linear-gradient);}.cls-6{fill:url(#linear-gradient-2);}.cls-7,.cls-8,.cls-9{fill:none;stroke-miterlimit:10;}.cls-7{stroke-width:12.57px;stroke:url(#linear-gradient-3);}.cls-8{stroke-width:16.63px;stroke:url(#linear-gradient-4);}.cls-9{stroke-width:22.86px;stroke:url(#linear-gradient-5);}.cls-10{fill:url(#linear-gradient-6);}.cls-11{fill:url(#linear-gradient-7);}.cls-12{fill:url(#linear-gradient-8);}</style><linearGradient id="linear-gradient" x1="556.61" y1="436.19" x2="506.71" y2="497.28" gradientTransform="matrix(0.64, -0.64, 0.53, 0.77, -112.49, 404.09)" gradientUnits="userSpaceOnUse"><stop offset="0" stop-color="#012176"/><stop offset="0.19" stop-color="#053a92"/><stop offset="0.86" stop-color="#061670"/><stop offset="1" stop-color="#06166f"/></linearGradient><linearGradient id="linear-gradient-2" x1="-60.67" y1="972.93" x2="-110.57" y2="1034.03" gradientTransform="matrix(0.64, -0.54, 0.53, 0.64, 14.86, -99.26)" gradientUnits="userSpaceOnUse"><stop offset="0" stop-color="#06166f"/><stop offset="0.23" stop-color="#071577"/><stop offset="0.45" stop-color="#04218f"/><stop offset="0.75" stop-color="#0033b4"/><stop offset="1" stop-color="#003eb9"/></linearGradient><linearGradient id="linear-gradient-3" x1="472.6" y1="339.85" x2="627.16" y2="339.85" gradientUnits="userSpaceOnUse"><stop offset="0" stop-color="#00186c"/><stop offset="0.28" stop-color="#053d96"/><stop offset="0.52" stop-color="#0a60bd"/><stop offset="1" stop-color="#0151a2"/></linearGradient><linearGradient id="linear-gradient-4" x1="291.38" y1="523.1" x2="495.99" y2="523.1" gradientUnits="userSpaceOnUse"><stop offset="0" stop-color="#00002a"/><stop offset="0.52" stop-color="#011748"/><stop offset="1" stop-color="#081580"/></linearGradient><linearGradient id="linear-gradient-5" x1="490.44" y1="675.23" x2="771.59" y2="675.23" gradientUnits="userSpaceOnUse"><stop offset="0" stop-color="#0026af"/><stop offset="0.22" stop-color="#0050c0"/><stop offset="0.52" stop-color="#008fda"/><stop offset="1" stop-color="#06dffd"/></linearGradient><linearGradient id="linear-gradient-6" x1="511.28" y1="342.96" x2="595.18" y2="342.96" gradientUnits="userSpaceOnUse"><stop offset="0" stop-color="#00186c"/><stop offset="0.08" stop-color="#011e73"/><stop offset="0.7" stop-color="#074ea8"/><stop offset="1" stop-color="#0a60bd"/></linearGradient><linearGradient id="linear-gradient-7" x1="338.24" y1="523.23" x2="442.37" y2="523.23" xlink:href="#linear-gradient-4"/><linearGradient id="linear-gradient-8" x1="555.34" y1="683.71" x2="708.1" y2="683.71" xlink:href="#linear-gradient-5"/></defs><path class="cls-1" d="M964.84,765.84a463.28,463.28,0,1,1,13.93-424.63H1041C962.89,152.29,776.79,19.35,559.65,19.35,272.1,19.35,39,252.45,39,540s233.1,520.65,520.65,520.65c206.62,0,385.14-120.37,469.26-294.81Z"/><path class="cls-2" d="M981,765.84a477.62,477.62,0,1,1,13.41-424.63H1041C962.89,152.29,776.79,19.35,559.65,19.35,272.1,19.35,39,252.45,39,540s233.1,520.65,520.65,520.65c206.62,0,385.14-120.37,469.26-294.81Z"/><path class="cls-3" d="M997.12,765.84a491.8,491.8,0,1,1,12.94-424.63H1041C962.89,152.29,776.79,19.35,559.65,19.35,272.1,19.35,39,252.45,39,540s233.1,520.65,520.65,520.65c206.62,0,385.14-120.37,469.26-294.81Z"/><path class="cls-4" d="M917.75,898.1a506,506,0,1,1,107.82-556.89H1041C962.89,152.29,776.79,19.35,559.65,19.35,272.1,19.35,39,252.45,39,540s233.1,520.65,520.65,520.65c206.62,0,385.14-120.37,469.26-294.81h-15.85A505.1,505.1,0,0,1,917.75,898.1Z"/><rect class="cls-5" x="470" y="382.83" width="16.68" height="82.42" transform="translate(381.92 -207.88) rotate(39.77)"/><rect class="cls-6" x="487.81" y="558.35" width="16.68" height="68.94" transform="translate(-269.83 697.17) rotate(-57.83)"/><circle class="cls-7" cx="549.88" cy="339.85" r="71"/><circle class="cls-8" cx="393.68" cy="523.1" r="93.99"/><circle class="cls-9" cx="631.02" cy="675.23" r="129.15"/><path class="cls-10" d="M595.18,375c-3.52,4.31-12.43,13.91-27,17.59A48.61,48.61,0,0,1,553.39,394a48.94,48.94,0,0,1-14.79-1.13c-14.67-3.45-23.72-12.92-27.32-17.17a78,78,0,0,1,14.42-8c7.36-3.08,12.45-3.81,14.41-8,1.35-2.86.62-6-.12-8.12a28.66,28.66,0,0,1-8.22-6.64c-10.12-11.9-6.32-27.9-5.87-29.65.57-2.22,4.33-17,17.24-21.91a32.08,32.08,0,0,1,18.91-.15c13,4.68,17,19.42,17.58,21.64.47,1.74,4.53,17.68-5.41,29.75a29.2,29.2,0,0,1-8.11,6.76c-.71,2.1-1.39,5.27,0,8.11,2,4.16,7.13,4.81,14.53,7.78A76.93,76.93,0,0,1,595.18,375Z"/><path class="cls-11" d="M442.37,567a62.42,62.42,0,0,1-25.7,17,64,64,0,0,1-26.37,3.31,64.06,64.06,0,0,1-26.37-3.31,62.3,62.3,0,0,1-25.69-17c18.08-6.29,30.37-13.82,32.45-18.37a23.12,23.12,0,0,0,1.36-3.93,21,21,0,0,0,0-9.19C370.84,531,368,530,363.93,525a55.32,55.32,0,0,1-6.76-11.81c-1.53-3.46-7.6-19.86,1.35-35.41,9.94-17.28,30.16-18.85,31.78-18.95,1.62.1,21.84,1.67,31.78,18.95,8.95,15.55,2.88,31.95,1.35,35.41A54.8,54.8,0,0,1,416.67,525c-4.07,5-6.91,6-8.11,10.49a21,21,0,0,0,0,9.19,23.6,23.6,0,0,0,1.35,3.93C412,553.19,424.29,560.72,442.37,567Z"/><path class="cls-12" d="M708.1,734.06c.78,54.74-152,56.92-152.76,2.18q16.68-6.76,34.8-13.16,8.82-3.11,17.43-5.91c2.91-.08,2.6-10.89-.31-10.81a52.57,52.57,0,0,1-7.79-.81,53.58,53.58,0,0,1-9.9-2.74,54.58,54.58,0,0,1-13.75-7.74l5.27-4.87,5.27-4.89c6.77-6.59-4.54-30.19-1.61-56.77.74-6.67,2-9.82,2.41-10.9,1.68-4.15,8.26-14.34,23.06-21.63a44.15,44.15,0,0,1,7.95-3.27c10.28-3,19.2-.91,23,0a50.57,50.57,0,0,1,8.11,2.71c4.67,2,17.81,7.62,23.67,21a33.47,33.47,0,0,1,2.7,10.82c-4.26,41-2.87,54.25,0,56.79l5.41,4.74,5.41,4.73a54.17,54.17,0,0,1-31.1,12.17c-2.63,0-2.63,10.82,0,10.82q8.68,2.55,17.58,5.41Q691.24,727.75,708.1,734.06Z"/></svg>